<svg width="1200" height="1200" viewBox="0 0 1200 1200" fill="none" xmlns="http://www.w3.org/2000/svg">
  <rect width="1200" height="1200" fill="#F7F2EC"/>
  <rect x="130" y="130" width="940" height="940" rx="120" fill="#EFE5DA"/>
  <circle cx="932" cy="285" r="72" fill="#E5D5C5"/>
  <circle cx="260" cy="890" r="96" fill="#EADFD2"/>
  <rect x="310" y="248" width="580" height="650" rx="230" fill="#F4ECE5"/>
  <rect x="392" y="164" width="416" height="174" rx="87" fill="#FFFDFC"/>
  <rect x="432" y="201" width="336" height="100" rx="50" fill="#1F2328"/>
  <rect x="447" y="222" width="98" height="20" rx="10" fill="#F6F8FA" opacity="0.92"/>
  <rect x="447" y="254" width="122" height="14" rx="7" fill="#F6F8FA" opacity="0.58"/>
  <rect x="662" y="224" width="66" height="48" rx="24" fill="#F6F8FA" opacity="0.9"/>
  <circle cx="756" cy="248" r="20" fill="#F6F8FA" opacity="0.86"/>
  <rect x="366" y="338" width="468" height="492" rx="192" fill="#FFFFFF" opacity="0.34"/>
  <circle cx="600" cy="584" r="154" fill="#FFFFFF" opacity="0.56"/>
  <circle cx="600" cy="584" r="112" stroke="#FFFFFF" stroke-opacity="0.95" stroke-width="18"/>
  <path d="M720 450C811 504 866 599 866 705" stroke="#FFFFFF" stroke-opacity="0.72" stroke-width="22" stroke-linecap="round"/>
  <rect x="474" y="515" width="126" height="126" rx="40" fill="#FFFFFF" opacity="0.88"/>
  <rect x="504" y="545" width="66" height="66" rx="33" fill="#F7F2EC"/>
  <rect x="198" y="911" width="804" height="48" rx="24" fill="#E1D4C8"/>
  <rect x="252" y="938" width="696" height="28" rx="14" fill="#D6C5B7" opacity="0.78"/>
</svg>